<?xml version="1.0" encoding="UTF-8"?>
<svg id="Layer_1" xmlns="http://www.w3.org/2000/svg" xmlns:xlink="http://www.w3.org/1999/xlink" version="1.1" viewBox="0 0 197.76 258.59">
  <!-- Generator: Adobe Illustrator 29.4.0, SVG Export Plug-In . SVG Version: 2.1.0 Build 152)  -->
  <defs>
    <style>
      .st0 {
        fill: none;
      }

      .st1 {
        clip-path: url(#clippath-1);
      }

      .st2 {
        clip-path: url(#clippath-3);
      }

      .st3 {
        clip-path: url(#clippath-4);
      }

      .st4 {
        clip-path: url(#clippath-2);
      }

      .st5 {
        clip-path: url(#clippath-5);
      }

      .st6 {
        fill: #00ae4f;
      }

      .st7 {
        clip-path: url(#clippath);
      }
    </style>
    <clipPath id="clippath">
      <rect class="st0" y="130.88" width="53.47" height="127.79"/>
    </clipPath>
    <clipPath id="clippath-1">
      <path class="st0" d="M53.26,205.35v-74.47c-29.41,0-53.26,23.82-53.26,53.22v74.46c29.41,0,53.26-23.82,53.26-53.21Z"/>
    </clipPath>
    <clipPath id="clippath-2">
      <rect class="st0" x="72.26" y="76.06" width="53.42" height="182.55"/>
    </clipPath>
    <clipPath id="clippath-3">
      <path class="st0" d="M125.52,205.36V76.06c-29.41,0-53.26,23.82-53.26,53.22v129.29c29.41,0,53.26-23.83,53.26-53.21h0Z"/>
    </clipPath>
    <clipPath id="clippath-4">
      <rect class="st0" x="144.5" y=".09" width="53.4" height="258.55"/>
    </clipPath>
    <clipPath id="clippath-5">
      <path class="st0" d="M197.76,205.35V0C168.35,0,144.5,23.83,144.5,53.21v205.36c29.41,0,53.26-23.83,53.26-53.21h0Z"/>
    </clipPath>
  </defs>
  <g class="st7">
    <g class="st1">
      <path class="st6" d="M0,130.88h53.26v127.65H0v-127.65Z"/>
    </g>
  </g>
  <g class="st4">
    <g class="st2">
      <path class="st6" d="M72.26,76.06h53.26v182.55h-53.26s0-182.55,0-182.55Z"/>
    </g>
  </g>
  <g class="st3">
    <g class="st5">
      <path class="st6" d="M144.5,0h53.26v258.64h-53.26V0Z"/>
    </g>
  </g>
</svg>