<svg xmlns="http://www.w3.org/2000/svg" xmlns:xlink="http://www.w3.org/1999/xlink" width="1583" zoomAndPan="magnify" viewBox="0 0 1187.25 194.249992" height="259" preserveAspectRatio="xMidYMid meet" version="1.0"><defs><clipPath id="8341938bb0"><path d="M 1103 37 L 1184.59375 37 L 1184.59375 157 L 1103 157 Z M 1103 37 " clip-rule="nonzero"/></clipPath><clipPath id="3b36bc3a13"><path d="M 1.910156 97.894531 L 40.910156 97.894531 L 40.910156 193.503906 L 1.910156 193.503906 Z M 1.910156 97.894531 " clip-rule="nonzero"/></clipPath><clipPath id="712afb8f0d"><path d="M 40.75 153.625 L 40.75 97.894531 C 18.742188 97.894531 0.894531 115.722656 0.894531 137.722656 L 0.894531 193.441406 C 22.902344 193.441406 40.75 175.617188 40.75 153.625 Z M 40.75 153.625 " clip-rule="nonzero"/></clipPath><clipPath id="7074162448"><path d="M 54.96875 56.871094 L 94.945312 56.871094 L 94.945312 193.480469 L 54.96875 193.480469 Z M 54.96875 56.871094 " clip-rule="nonzero"/></clipPath><clipPath id="b058e0c4d3"><path d="M 94.824219 153.632812 L 94.824219 56.871094 C 72.816406 56.871094 54.96875 74.699219 54.96875 96.699219 L 54.96875 193.449219 C 76.976562 193.449219 94.824219 175.617188 94.824219 153.632812 Z M 94.824219 153.632812 " clip-rule="nonzero"/></clipPath><clipPath id="480493ed31"><path d="M 109.03125 0.0234375 L 148.988281 0.0234375 L 148.988281 193.503906 L 109.03125 193.503906 Z M 109.03125 0.0234375 " clip-rule="nonzero"/></clipPath><clipPath id="428f8cc655"><path d="M 148.886719 153.625 L 148.886719 -0.046875 C 126.878906 -0.046875 109.03125 17.789062 109.03125 39.773438 L 109.03125 193.449219 C 131.039062 193.449219 148.886719 175.617188 148.886719 153.632812 Z M 148.886719 153.625 " clip-rule="nonzero"/></clipPath></defs><path fill="#ffffff" d="M 688.691406 158.527344 C 679.804688 158.527344 671.839844 157.121094 664.796875 154.328125 C 657.757812 151.535156 651.746094 147.480469 646.777344 142.175781 C 641.816406 136.863281 638.039062 130.394531 635.433594 122.75 C 632.832031 115.101562 631.527344 106.457031 631.527344 96.8125 L 631.527344 96.714844 C 631.527344 87.238281 632.832031 78.738281 635.433594 71.21875 C 638.039062 63.683594 641.808594 57.285156 646.742188 52.023438 C 651.679688 46.761719 657.628906 42.753906 664.589844 39.984375 C 671.546875 37.222656 679.390625 35.835938 688.109375 35.835938 C 695.234375 35.835938 701.75 36.808594 707.679688 38.761719 C 713.597656 40.703125 718.789062 43.433594 723.25 46.933594 C 727.71875 50.445312 731.394531 54.5625 734.234375 59.269531 C 737.078125 63.972656 739.011719 69.125 740 74.699219 L 740.246094 75.84375 L 715.332031 75.84375 L 714.996094 75.027344 C 713.011719 69.289062 709.726562 64.820312 705.125 61.640625 C 700.53125 58.460938 694.890625 56.867188 688.191406 56.867188 C 681.5 56.867188 676.0625 58.40625 671.367188 61.503906 C 666.683594 64.601562 663.101562 69.109375 660.601562 75.019531 C 658.109375 80.9375 656.867188 88.085938 656.867188 96.460938 L 656.867188 96.558594 C 656.867188 105.101562 658.175781 112.429688 660.800781 118.535156 C 663.4375 124.640625 667.164062 129.320312 671.988281 132.582031 C 676.808594 135.84375 682.511719 137.476562 689.089844 137.476562 C 694.523438 137.476562 699.296875 136.480469 703.40625 134.46875 C 707.511719 132.46875 710.769531 129.65625 713.148438 126.011719 C 715.535156 122.367188 716.835938 118.101562 717.046875 113.222656 L 717.121094 111.507812 L 689.996094 111.507812 L 689.996094 93.015625 L 741.308594 93.015625 L 741.308594 106.652344 C 741.308594 117.390625 739.21875 126.632812 735.050781 134.378906 C 730.882812 142.128906 724.875 148.085938 717.003906 152.261719 C 709.136719 156.421875 699.699219 158.503906 688.683594 158.503906 Z M 688.691406 158.527344 " fill-opacity="1" fill-rule="nonzero"/><path fill="#ffffff" d="M 755.625 156.46875 L 755.625 68.375 L 779.636719 68.375 L 779.636719 83.753906 L 780.140625 83.753906 C 781.449219 78.328125 783.828125 74.105469 787.277344 71.089844 C 790.734375 68.082031 795.046875 66.570312 800.210938 66.570312 C 801.511719 66.570312 802.785156 66.652344 803.988281 66.816406 C 805.199219 66.976562 806.242188 67.207031 807.117188 67.484375 L 807.117188 88.601562 C 806.128906 88.160156 804.855469 87.824219 803.320312 87.613281 C 801.789062 87.40625 800.148438 87.285156 798.390625 87.285156 C 792.472656 87.285156 787.863281 89.007812 784.578125 92.433594 C 781.292969 95.851562 779.644531 100.761719 779.644531 107.167969 L 779.644531 156.476562 L 755.632812 156.476562 L 755.632812 156.46875 Z M 755.625 156.46875 " fill-opacity="1" fill-rule="nonzero"/><path fill="#ffffff" d="M 854.46875 158.277344 C 845.527344 158.277344 837.789062 156.453125 831.257812 152.777344 C 824.738281 149.105469 819.703125 143.84375 816.140625 137.003906 C 812.578125 130.15625 810.789062 121.960938 810.789062 112.421875 L 810.789062 112.265625 C 810.789062 102.78125 812.601562 94.632812 816.207031 87.816406 C 819.835938 80.992188 824.902344 75.746094 831.421875 72.070312 C 837.945312 68.398438 845.59375 66.554688 854.367188 66.554688 C 863.136719 66.554688 870.882812 68.375 877.4375 72.019531 C 883.976562 75.671875 889.066406 80.902344 892.679688 87.71875 C 896.308594 94.535156 898.121094 102.722656 898.121094 112.257812 L 898.121094 112.414062 C 898.121094 122.007812 896.316406 130.222656 892.734375 137.078125 C 889.148438 143.925781 884.089844 149.171875 877.554688 152.808594 C 871.03125 156.460938 863.324219 158.273438 854.460938 158.273438 Z M 854.550781 139.457031 C 860.417969 139.457031 865.074219 137.101562 868.523438 132.394531 C 871.980469 127.6875 873.71875 121.027344 873.71875 112.421875 L 873.71875 112.265625 C 873.71875 106.570312 872.925781 101.71875 871.332031 97.730469 C 869.742188 93.726562 867.484375 90.675781 864.582031 88.570312 C 861.667969 86.460938 858.28125 85.398438 854.386719 85.398438 C 850.496094 85.398438 847.195312 86.460938 844.324219 88.570312 C 841.433594 90.675781 839.195312 93.734375 837.617188 97.730469 C 836.03125 101.726562 835.246094 106.578125 835.246094 112.265625 L 835.246094 112.421875 C 835.246094 121.019531 836.988281 127.679688 840.460938 132.394531 C 843.925781 137.101562 848.632812 139.457031 854.550781 139.457031 Z M 854.550781 139.457031 " fill-opacity="1" fill-rule="nonzero"/><path fill="#ffffff" d="M 926.832031 156.46875 L 903.394531 68.382812 L 927.566406 68.382812 L 940.894531 133.71875 L 941.394531 133.71875 L 957.007812 68.382812 L 980.046875 68.382812 L 995.738281 133.71875 L 996.242188 133.71875 L 1009.644531 68.382812 L 1033.328125 68.382812 L 1009.980469 156.46875 L 984.402344 156.46875 L 968.441406 94.191406 L 967.941406 94.191406 L 952.074219 156.46875 Z M 926.832031 156.46875 " fill-opacity="1" fill-rule="nonzero"/><path fill="#ffffff" d="M 1077.710938 158.277344 C 1067.960938 158.277344 1060.726562 156.230469 1056.003906 152.121094 C 1051.296875 148.011719 1048.9375 141.246094 1048.9375 131.824219 L 1048.9375 86.46875 L 1036.679688 86.46875 L 1036.679688 68.382812 L 1048.9375 68.382812 L 1048.9375 46.859375 L 1073.183594 46.859375 L 1073.183594 68.382812 L 1089.3125 68.382812 L 1089.3125 86.460938 L 1073.183594 86.460938 L 1073.183594 129.191406 C 1073.183594 133.300781 1074.097656 136.164062 1075.945312 137.78125 C 1077.78125 139.390625 1080.511719 140.191406 1084.125 140.191406 C 1085.21875 140.191406 1086.175781 140.140625 1087.015625 140.035156 C 1087.835938 139.921875 1088.617188 139.839844 1089.320312 139.789062 L 1089.320312 157.367188 C 1087.941406 157.589844 1086.304688 157.792969 1084.371094 157.980469 C 1082.457031 158.175781 1080.234375 158.277344 1077.710938 158.277344 Z M 1077.710938 158.277344 " fill-opacity="1" fill-rule="nonzero"/><g clip-path="url(#8341938bb0)"><path fill="#ffffff" d="M 1103.109375 156.46875 L 1103.109375 37.894531 L 1127.125 37.894531 L 1127.125 83.582031 L 1127.625 83.582031 C 1129.878906 78.09375 1133.28125 73.898438 1137.863281 70.964844 C 1142.433594 68.039062 1148.039062 66.5625 1154.671875 66.5625 C 1161.300781 66.5625 1166.523438 67.984375 1171.164062 70.808594 C 1175.796875 73.628906 1179.363281 77.617188 1181.855469 82.757812 C 1184.355469 87.914062 1185.605469 94.042969 1185.605469 101.167969 L 1185.605469 156.46875 L 1161.59375 156.46875 L 1161.59375 106.089844 C 1161.59375 99.910156 1160.125 95.089844 1157.183594 91.648438 C 1154.25 88.191406 1150.046875 86.460938 1144.558594 86.460938 C 1141.058594 86.460938 1137.988281 87.300781 1135.355469 88.96875 C 1132.722656 90.636719 1130.695312 92.941406 1129.265625 95.867188 C 1127.835938 98.800781 1127.125 102.175781 1127.125 106.015625 L 1127.125 156.476562 L 1103.117188 156.476562 Z M 1103.109375 156.46875 " fill-opacity="1" fill-rule="nonzero"/></g><path fill="#ffffff" d="M 207.359375 156.46875 L 207.359375 37.894531 L 252.335938 37.894531 C 259.128906 37.894531 265.085938 39.128906 270.183594 41.597656 C 275.277344 44.0625 279.257812 47.519531 282.109375 51.957031 C 284.960938 56.394531 286.382812 61.574219 286.382812 67.492188 L 286.382812 67.648438 C 286.382812 70.722656 285.851562 73.710938 284.765625 76.613281 C 283.703125 79.515625 282.191406 82.160156 280.246094 84.539062 C 278.308594 86.925781 276.027344 88.917969 273.429688 90.496094 C 270.832031 92.082031 267.988281 93.09375 264.90625 93.527344 L 264.90625 93.871094 C 270.609375 94.519531 275.511719 96.160156 279.625 98.792969 C 283.75 101.429688 286.898438 104.8125 289.09375 108.949219 C 291.277344 113.078125 292.378906 117.78125 292.378906 123.039062 L 292.378906 123.199219 C 292.378906 130.15625 290.769531 136.121094 287.558594 141.074219 C 284.347656 146.027344 279.761719 149.839844 273.78125 152.507812 C 267.808594 155.160156 260.601562 156.484375 252.167969 156.484375 L 207.351562 156.484375 L 207.351562 156.46875 Z M 248.972656 50.960938 L 222.160156 50.960938 L 222.160156 89 L 244.355469 89 C 253.136719 89 259.839844 87.300781 264.464844 83.910156 C 269.097656 80.511719 271.417969 75.609375 271.417969 69.207031 L 271.417969 69.046875 C 271.417969 63.179688 269.472656 58.707031 265.578125 55.609375 C 261.6875 52.511719 256.152344 50.96875 248.972656 50.96875 Z M 248.5625 101.742188 L 222.160156 101.742188 L 222.160156 143.402344 L 249.960938 143.402344 C 258.835938 143.402344 265.601562 141.636719 270.226562 138.105469 C 274.859375 134.566406 277.179688 129.402344 277.179688 122.605469 L 277.179688 122.449219 C 277.179688 108.640625 267.636719 101.734375 248.5625 101.734375 Z M 248.5625 101.742188 " fill-opacity="1" fill-rule="nonzero"/><path fill="#ffffff" d="M 342.132812 158.105469 C 333.976562 158.105469 326.941406 156.304688 321.054688 152.6875 C 315.15625 149.082031 310.628906 143.972656 307.480469 137.363281 C 304.328125 130.753906 302.757812 122.996094 302.757812 114.066406 L 302.757812 113.992188 C 302.757812 107.363281 303.65625 101.332031 305.464844 95.875 C 307.277344 90.429688 309.867188 85.722656 313.234375 81.738281 C 316.609375 77.773438 320.671875 74.707031 325.417969 72.582031 C 330.160156 70.449219 335.4375 69.378906 341.25 69.378906 C 349.042969 69.378906 355.738281 71.179688 361.359375 74.765625 C 366.980469 78.351562 371.296875 83.371094 374.3125 89.84375 C 377.328125 96.308594 378.832031 103.808594 378.832031 112.355469 L 378.832031 117.601562 L 317.238281 117.601562 C 317.347656 123.464844 318.449219 128.480469 320.53125 132.648438 C 322.609375 136.808594 325.535156 139.988281 329.277344 142.183594 C 333.035156 144.375 337.441406 145.46875 342.492188 145.46875 C 347.910156 145.46875 352.460938 144.269531 356.121094 141.859375 C 359.792969 139.449219 362.242188 136.40625 363.445312 132.730469 L 363.695312 131.992188 L 377.761719 131.992188 L 377.597656 132.804688 C 376.667969 137.527344 374.574219 141.800781 371.332031 145.640625 C 368.101562 149.472656 363.984375 152.507812 359.007812 154.753906 C 354.015625 156.992188 348.398438 158.113281 342.148438 158.113281 Z M 341.144531 82.015625 C 337.039062 82.015625 333.28125 82.960938 329.882812 84.816406 C 326.488281 86.671875 323.703125 89.417969 321.53125 93.03125 C 319.363281 96.648438 318.007812 101.105469 317.460938 106.425781 L 364.253906 106.425781 C 363.820312 100.898438 362.554688 96.332031 360.476562 92.710938 C 358.386719 89.089844 355.6875 86.402344 352.371094 84.644531 C 349.046875 82.890625 345.308594 82.015625 341.144531 82.015625 Z M 341.144531 82.015625 " fill-opacity="1" fill-rule="nonzero"/><path fill="#ffffff" d="M 420.992188 158.105469 C 413.15625 158.105469 407.292969 156.242188 403.390625 152.515625 C 399.5 148.796875 397.554688 142.847656 397.554688 134.683594 L 397.554688 82.832031 L 385.050781 82.832031 L 385.050781 71.007812 L 397.554688 71.007812 L 397.554688 47.929688 L 412.351562 47.929688 L 412.351562 71.007812 L 428.640625 71.007812 L 428.640625 82.839844 L 412.351562 82.839844 L 412.351562 134.617188 C 412.351562 139.167969 413.328125 142.257812 415.3125 143.875 C 417.296875 145.488281 420.199219 146.289062 424.039062 146.289062 C 424.914062 146.289062 425.753906 146.253906 426.554688 146.164062 C 427.347656 146.082031 428.042969 146.015625 428.640625 145.960938 L 428.640625 157.539062 C 427.765625 157.652344 426.628906 157.777344 425.234375 157.914062 C 423.835938 158.046875 422.4375 158.113281 421 158.113281 Z M 420.992188 158.105469 " fill-opacity="1" fill-rule="nonzero"/><path fill="#ffffff" d="M 471.738281 158.105469 C 463.902344 158.105469 458.027344 156.242188 454.128906 152.515625 C 450.238281 148.796875 448.292969 142.847656 448.292969 134.683594 L 448.292969 82.832031 L 435.789062 82.832031 L 435.789062 71.007812 L 448.292969 71.007812 L 448.292969 47.929688 L 463.09375 47.929688 L 463.09375 71.007812 L 479.378906 71.007812 L 479.378906 82.839844 L 463.09375 82.839844 L 463.09375 134.617188 C 463.09375 139.167969 464.074219 142.257812 466.050781 143.875 C 468.03125 145.488281 470.9375 146.289062 474.777344 146.289062 C 475.652344 146.289062 476.488281 146.253906 477.289062 146.164062 C 478.082031 146.082031 478.777344 146.015625 479.378906 145.960938 L 479.378906 157.539062 C 478.503906 157.652344 477.363281 157.777344 475.972656 157.914062 C 474.582031 158.046875 473.175781 158.113281 471.738281 158.105469 Z M 471.738281 158.105469 " fill-opacity="1" fill-rule="nonzero"/><path fill="#ffffff" d="M 527.390625 158.105469 C 519.234375 158.105469 512.199219 156.304688 506.308594 152.6875 C 500.414062 149.082031 495.886719 143.972656 492.734375 137.363281 C 489.585938 130.753906 488.011719 122.996094 488.011719 114.066406 L 488.011719 113.992188 C 488.011719 107.363281 488.910156 101.332031 490.730469 95.875 C 492.535156 90.429688 495.121094 85.722656 498.496094 81.738281 C 501.871094 77.773438 505.9375 74.707031 510.679688 72.582031 C 515.425781 70.449219 520.699219 69.378906 526.515625 69.378906 C 534.304688 69.378906 541.003906 71.179688 546.621094 74.765625 C 552.242188 78.351562 556.558594 83.371094 559.574219 89.84375 C 562.59375 96.308594 564.097656 103.808594 564.097656 112.355469 L 564.097656 117.601562 L 502.492188 117.601562 C 502.605469 123.464844 503.707031 128.480469 505.777344 132.648438 C 507.867188 136.808594 510.785156 139.988281 514.535156 142.183594 C 518.289062 144.375 522.699219 145.46875 527.75 145.46875 C 533.167969 145.46875 537.710938 144.269531 541.375 141.859375 C 545.050781 139.449219 547.5 136.40625 548.703125 132.730469 L 548.949219 131.992188 L 563.019531 131.992188 L 562.847656 132.804688 C 561.917969 137.527344 559.832031 141.800781 556.589844 145.640625 C 553.359375 149.472656 549.242188 152.507812 544.257812 154.753906 C 539.265625 156.992188 533.648438 158.113281 527.398438 158.113281 Z M 526.417969 82.015625 C 522.308594 82.015625 518.546875 82.960938 515.148438 84.816406 C 511.75 86.671875 508.964844 89.417969 506.796875 93.03125 C 504.625 96.648438 503.273438 101.105469 502.71875 106.425781 L 549.511719 106.425781 C 549.085938 100.898438 547.8125 96.332031 545.730469 92.710938 C 543.644531 89.089844 540.941406 86.402344 537.628906 84.644531 C 534.3125 82.886719 530.570312 82.015625 526.417969 82.015625 Z M 526.417969 82.015625 " fill-opacity="1" fill-rule="nonzero"/><path fill="#ffffff" d="M 578.464844 156.46875 L 578.464844 71.007812 L 592.765625 71.007812 L 592.765625 85.464844 L 593.109375 85.464844 C 594.539062 80.542969 597 76.628906 600.503906 73.734375 C 604.011719 70.8125 608.179688 69.363281 613.007812 69.363281 C 614.265625 69.363281 615.402344 69.429688 616.410156 69.566406 C 617.421875 69.699219 618.199219 69.828125 618.753906 69.929688 L 618.753906 83.820312 C 618.199219 83.601562 617.234375 83.410156 615.835938 83.242188 C 614.4375 83.078125 612.863281 82.996094 611.113281 82.996094 C 605.574219 82.996094 601.136719 84.816406 597.785156 88.460938 C 594.441406 92.113281 592.765625 97.183594 592.765625 103.710938 L 592.765625 156.453125 L 578.464844 156.453125 Z M 578.464844 156.46875 " fill-opacity="1" fill-rule="nonzero"/><g clip-path="url(#3b36bc3a13)"><g clip-path="url(#712afb8f0d)"><path fill="#ffffff" d="M 0.894531 97.894531 L 40.75 97.894531 L 40.75 193.421875 L 0.894531 193.421875 Z M 0.894531 97.894531 " fill-opacity="1" fill-rule="nonzero"/></g></g><g clip-path="url(#7074162448)"><g clip-path="url(#b058e0c4d3)"><path fill="#ffffff" d="M 54.96875 56.871094 L 94.824219 56.871094 L 94.824219 193.480469 L 54.96875 193.480469 Z M 54.96875 56.871094 " fill-opacity="1" fill-rule="nonzero"/></g></g><g clip-path="url(#480493ed31)"><g clip-path="url(#428f8cc655)"><path fill="#ffffff" d="M 109.03125 -0.046875 L 148.886719 -0.046875 L 148.886719 193.503906 L 109.03125 193.503906 Z M 109.03125 -0.046875 " fill-opacity="1" fill-rule="nonzero"/></g></g></svg>