<?xml version="1.0" encoding="utf-8"?>
<!-- Generator: Adobe Illustrator 29.4.0, SVG Export Plug-In . SVG Version: 9.03 Build 0)  -->
<svg version="1.0" id="Layer_1" xmlns="http://www.w3.org/2000/svg" xmlns:xlink="http://www.w3.org/1999/xlink" x="0px" y="0px"
	 viewBox="0 0 1583.13 258.52" style="enable-background:new 0 0 1583.13 258.52;" xml:space="preserve">
<style type="text/css">
	.st0{fill:#001107;}
	.st1{clip-path:url(#SVGID_00000174585628223824961630000007114308259347646865_);}
	.st2{clip-path:url(#SVGID_00000084515927915141499040000012289049204510495369_);}
	.st3{fill:#00AE4F;}
	.st4{clip-path:url(#SVGID_00000121253602488376429700000008733277966253053119_);}
	.st5{clip-path:url(#SVGID_00000123439821292345046730000010188394584003668117_);}
	.st6{clip-path:url(#SVGID_00000133507506592526771680000014321623038881939384_);}
	.st7{clip-path:url(#SVGID_00000135671597893807902360000005280415376356203160_);}
</style>
<path class="st0" d="M919.11,211.81c-11.88,0-22.52-1.88-31.93-5.61s-17.44-9.15-24.08-16.24c-6.63-7.1-11.68-15.74-15.16-25.96
	c-3.48-10.22-5.22-21.77-5.22-34.66v-0.13c0-12.66,1.74-24.02,5.22-34.07c3.48-10.07,8.52-18.62,15.11-25.65
	c6.6-7.03,14.55-12.39,23.85-16.09c9.3-3.69,19.78-5.54,31.43-5.54c9.52,0,18.23,1.3,26.15,3.91c7.91,2.59,14.85,6.24,20.81,10.92
	c5.97,4.69,10.88,10.19,14.68,16.48c3.8,6.29,6.38,13.17,7.7,20.62l0.33,1.53h-33.29l-0.45-1.09c-2.65-7.67-7.04-13.64-13.19-17.89
	c-6.14-4.25-13.68-6.38-22.63-6.38c-8.94,0-16.21,2.06-22.48,6.2c-6.26,4.14-11.05,10.16-14.39,18.06
	c-3.33,7.91-4.99,17.46-4.99,28.65V129c0,11.42,1.75,21.21,5.26,29.37c3.52,8.16,8.5,14.41,14.95,18.77
	c6.44,4.36,14.06,6.54,22.85,6.54c7.26,0,13.64-1.33,19.13-4.02c5.49-2.67,9.84-6.43,13.02-11.3c3.19-4.87,4.93-10.57,5.21-17.09
	l0.1-2.29h-36.25v-24.71h68.57v18.22c0,14.35-2.79,26.7-8.36,37.05c-5.57,10.36-13.6,18.32-24.12,23.9
	c-10.51,5.56-23.12,8.34-37.84,8.34L919.11,211.81z"/>
<path class="st0" d="M1008.55,209.06V91.34h32.09v20.55h0.67c1.75-7.25,4.93-12.89,9.54-16.92c4.62-4.02,10.38-6.04,17.28-6.04
	c1.74,0,3.44,0.11,5.05,0.33c1.62,0.21,3.01,0.52,4.18,0.89v28.22c-1.32-0.59-3.02-1.04-5.07-1.32s-4.24-0.44-6.59-0.44
	c-7.91,0-14.07,2.3-18.46,6.88c-4.39,4.57-6.59,11.13-6.59,19.69v65.89h-32.09v-0.01H1008.55z"/>
<path class="st0" d="M1140.64,211.48c-11.95,0-22.29-2.44-31.02-7.35c-8.71-4.91-15.44-11.94-20.2-21.08
	c-4.76-9.15-7.15-20.1-7.15-32.85v-0.21c0-12.67,2.42-23.56,7.24-32.67c4.85-9.12,11.62-16.13,20.33-21.04
	c8.72-4.91,18.94-7.37,30.66-7.37c11.72,0,22.07,2.43,30.83,7.3c8.74,4.88,15.54,11.87,20.37,20.98c4.85,9.11,7.27,20.05,7.27,32.79
	v0.21c0,12.82-2.41,23.8-7.2,32.96c-4.79,9.15-11.55,16.16-20.28,21.02c-8.72,4.88-19.02,7.3-30.86,7.3L1140.64,211.48z
	 M1140.75,186.33c7.84,0,14.06-3.15,18.67-9.44c4.62-6.29,6.94-15.19,6.94-26.69v-0.21c0-7.61-1.06-14.09-3.19-19.42
	c-2.12-5.35-5.14-9.43-9.02-12.24c-3.89-2.82-8.42-4.24-13.62-4.24s-9.61,1.42-13.45,4.24c-3.86,2.81-6.85,6.9-8.96,12.24
	c-2.12,5.34-3.17,11.82-3.17,19.42v0.21c0,11.49,2.33,20.39,6.97,26.69C1126.55,183.18,1132.84,186.33,1140.75,186.33z"/>
<path class="st0" d="M1237.34,209.06l-31.32-117.71h32.3l17.81,87.31h0.67l20.86-87.31h30.79l20.97,87.31h0.67L1348,91.35h31.65
	l-31.2,117.71h-34.18l-21.33-83.22h-0.67l-21.2,83.22h-33.72H1237.34z"/>
<path class="st0" d="M1438.96,211.48c-13.03,0-22.7-2.74-29.01-8.23c-6.29-5.49-9.44-14.53-9.44-27.12v-60.61h-16.38V91.35h16.38
	V62.59h32.4v28.76h21.55v24.16h-21.55v57.1c0,5.49,1.22,9.32,3.69,11.48c2.45,2.15,6.1,3.22,10.93,3.22c1.46,0,2.74-0.07,3.86-0.21
	c1.1-0.15,2.14-0.26,3.08-0.33v23.49c-1.84,0.3-4.03,0.57-6.61,0.82C1445.3,211.34,1442.33,211.48,1438.96,211.48L1438.96,211.48z"
	/>
<path class="st0" d="M1472.9,209.06V50.61h32.09v61.05h0.67c3.01-7.33,7.56-12.94,13.68-16.86c6.11-3.91,13.6-5.88,22.46-5.88
	s15.84,1.9,22.04,5.67c6.19,3.77,10.96,9.1,14.29,15.97c3.34,6.89,5.01,15.08,5.01,24.6v73.9h-32.09v-67.32
	c0-8.26-1.96-14.7-5.89-19.3c-3.92-4.62-9.54-6.93-16.87-6.93c-4.68,0-8.78,1.12-12.3,3.35c-3.52,2.23-6.23,5.31-8.14,9.22
	c-1.91,3.92-2.86,8.43-2.86,13.56v67.43h-32.08L1472.9,209.06z"/>
<path class="st0" d="M275.9,209.06V50.61H336c9.08,0,17.04,1.65,23.85,4.95c6.81,3.29,12.13,7.91,15.94,13.84s5.71,12.85,5.71,20.76
	v0.21c0,4.11-0.71,8.1-2.16,11.98c-1.42,3.88-3.44,7.41-6.04,10.59c-2.59,3.19-5.64,5.85-9.11,7.96c-3.47,2.12-7.27,3.47-11.39,4.05
	v0.46c7.62,0.87,14.17,3.06,19.67,6.58c5.51,3.52,9.72,8.04,12.65,13.57c2.92,5.52,4.39,11.8,4.39,18.83v0.21
	c0,9.3-2.15,17.27-6.44,23.89s-10.42,11.71-18.41,15.28c-7.98,3.54-17.61,5.31-28.88,5.31h-59.89v-0.02H275.9z M331.51,68.07h-35.83
	v50.83h29.66c11.73,0,20.69-2.27,26.87-6.8c6.19-4.54,9.29-11.09,9.29-19.65v-0.21c0-7.84-2.6-13.82-7.8-17.96
	c-5.2-4.14-12.6-6.2-22.19-6.2L331.51,68.07L331.51,68.07z M330.96,135.93h-35.28v55.67h37.15c11.86,0,20.9-2.36,27.08-7.08
	c6.19-4.73,9.29-11.63,9.29-20.71v-0.21c0-18.45-12.75-27.68-38.24-27.68V135.93z"/>
<path class="st0" d="M456,211.25c-10.9,0-20.3-2.41-28.17-7.24c-7.88-4.82-13.93-11.65-18.14-20.48c-4.21-8.83-6.31-19.2-6.31-31.13
	v-0.1c0-8.86,1.2-16.92,3.62-24.21c2.42-7.28,5.88-13.57,10.38-18.89c4.51-5.3,9.94-9.4,16.28-12.24
	c6.34-2.85,13.39-4.28,21.16-4.28c10.41,0,19.36,2.41,26.87,7.2c7.51,4.79,13.28,11.5,17.31,20.15c4.03,8.64,6.04,18.66,6.04,30.08
	v7.01h-82.31c0.15,7.84,1.62,14.54,4.4,20.11c2.78,5.56,6.69,9.81,11.69,12.74c5.02,2.93,10.91,4.39,17.66,4.39
	c7.24,0,13.32-1.6,18.21-4.82c4.91-3.22,8.18-7.29,9.79-12.2l0.33-0.99h18.8l-0.22,1.09c-1.24,6.31-4.04,12.02-8.37,17.15
	c-4.32,5.12-9.82,9.18-16.47,12.18c-6.67,2.99-14.18,4.49-22.53,4.49L456,211.25L456,211.25z M454.68,109.57
	c-5.49,0-10.51,1.26-15.05,3.74c-4.54,2.48-8.26,6.15-11.16,10.98c-2.9,4.83-4.71,10.79-5.44,17.9h62.53
	c-0.58-7.39-2.27-13.49-5.05-18.33c-2.79-4.84-6.4-8.43-10.83-10.78C465.24,110.74,460.24,109.57,454.68,109.57z"/>
<path class="st0" d="M561.38,211.25c-10.47,0-18.31-2.49-23.52-7.47c-5.2-4.97-7.8-12.92-7.8-23.83v-69.29h-16.71v-15.8h16.71V64.02
	h19.77v30.84h21.77v15.81h-21.77v69.19c0,6.08,1.31,10.21,3.96,12.37c2.65,2.16,6.53,3.23,11.66,3.23c1.17,0,2.29-0.05,3.36-0.17
	c1.06-0.11,1.99-0.2,2.79-0.27v15.47c-1.17,0.15-2.69,0.32-4.55,0.5c-1.87,0.18-3.74,0.27-5.66,0.27L561.38,211.25L561.38,211.25z"
	/>
<path class="st0" d="M629.19,211.25c-10.47,0-18.32-2.49-23.53-7.47c-5.2-4.97-7.8-12.92-7.8-23.83v-69.29h-16.71v-15.8h16.71V64.02
	h19.78v30.84h21.76v15.81h-21.76v69.19c0,6.08,1.31,10.21,3.95,12.37c2.65,2.16,6.53,3.23,11.66,3.23c1.17,0,2.29-0.05,3.36-0.17
	c1.06-0.11,1.99-0.2,2.79-0.27v15.47c-1.17,0.15-2.69,0.32-4.55,0.5S631.11,211.26,629.19,211.25L629.19,211.25L629.19,211.25z"/>
<path class="st0" d="M703.56,211.25c-10.9,0-20.3-2.41-28.17-7.24c-7.88-4.82-13.93-11.65-18.14-20.48s-6.31-19.2-6.31-31.13v-0.1
	c0-8.86,1.2-16.92,3.63-24.21c2.41-7.28,5.87-13.57,10.38-18.89c4.51-5.3,9.94-9.4,16.28-12.24c6.34-2.85,13.39-4.28,21.16-4.28
	c10.41,0,19.36,2.41,26.87,7.2c7.51,4.79,13.28,11.5,17.31,20.15c4.03,8.64,6.04,18.66,6.04,30.08v7.01h-82.32
	c0.15,7.84,1.62,14.54,4.39,20.11c2.79,5.56,6.69,9.81,11.7,12.74c5.02,2.93,10.91,4.39,17.66,4.39c7.24,0,13.31-1.6,18.21-4.82
	c4.91-3.22,8.18-7.29,9.79-12.2l0.33-0.99h18.8l-0.23,1.09c-1.24,6.31-4.03,12.02-8.36,17.15c-4.32,5.12-9.82,9.18-16.48,12.18
	c-6.67,2.99-14.18,4.49-22.53,4.49L703.56,211.25L703.56,211.25z M702.26,109.57c-5.49,0-10.52,1.26-15.06,3.74
	c-4.54,2.48-8.26,6.15-11.16,10.98c-2.9,4.83-4.71,10.79-5.45,17.9h62.53c-0.57-7.39-2.27-13.49-5.05-18.33
	c-2.79-4.84-6.4-8.43-10.83-10.78S707.81,109.57,702.26,109.57z"/>
<path class="st0" d="M771.81,209.06V94.86h19.11v19.32h0.46c1.91-6.58,5.2-11.81,9.88-15.68c4.69-3.9,10.26-5.84,16.71-5.84
	c1.68,0,3.2,0.09,4.55,0.27s2.39,0.35,3.13,0.49v18.56c-0.74-0.29-2.03-0.55-3.9-0.77c-1.87-0.22-3.97-0.33-6.31-0.33
	c-7.4,0-13.33,2.43-17.81,7.3c-4.47,4.88-6.71,11.66-6.71,20.38v70.48h-19.11V209.06z"/>
<g>
	<g>
		<defs>
			<rect id="SVGID_1_" y="130.79" width="53.47" height="127.79"/>
		</defs>
		<clipPath id="SVGID_00000054243767284163526220000011697833769491344768_">
			<use xlink:href="#SVGID_1_"  style="overflow:visible;"/>
		</clipPath>
		<g style="clip-path:url(#SVGID_00000054243767284163526220000011697833769491344768_);">
			<g>
				<g>
					<defs>
						<path id="SVGID_00000132778730245010925070000004071970008559861936_" d="M53.26,205.26v-74.47
							C23.85,130.79,0,154.61,0,184.01v74.46C29.41,258.47,53.26,234.65,53.26,205.26z"/>
					</defs>
					<clipPath id="SVGID_00000175294658825396939880000015192932508829893813_">
						<use xlink:href="#SVGID_00000132778730245010925070000004071970008559861936_"  style="overflow:visible;"/>
					</clipPath>
					<g style="clip-path:url(#SVGID_00000175294658825396939880000015192932508829893813_);">
						<path class="st3" d="M0,130.79h53.26v127.65H0V130.79z"/>
					</g>
				</g>
			</g>
		</g>
	</g>
</g>
<g>
	<g>
		<defs>
			<rect id="SVGID_00000094607068739327250640000004464236829908980109_" x="72.26" y="75.97" width="53.42" height="182.55"/>
		</defs>
		<clipPath id="SVGID_00000003102932758266476080000010095001317570765491_">
			<use xlink:href="#SVGID_00000094607068739327250640000004464236829908980109_"  style="overflow:visible;"/>
		</clipPath>
		<g style="clip-path:url(#SVGID_00000003102932758266476080000010095001317570765491_);">
			<g>
				<g>
					<defs>
						<path id="SVGID_00000059276683209929247680000017283714166374467481_" d="M125.52,205.27V75.97
							c-29.41,0-53.26,23.82-53.26,53.22v129.29C101.67,258.48,125.52,234.65,125.52,205.27z"/>
					</defs>
					<clipPath id="SVGID_00000067947050609978081990000010444576713088706690_">
						<use xlink:href="#SVGID_00000059276683209929247680000017283714166374467481_"  style="overflow:visible;"/>
					</clipPath>
					<g style="clip-path:url(#SVGID_00000067947050609978081990000010444576713088706690_);">
						<path class="st3" d="M72.26,75.97h53.26v182.55H72.26V75.97z"/>
					</g>
				</g>
			</g>
		</g>
	</g>
</g>
<g>
	<g>
		<defs>
			<rect id="SVGID_00000118390227257266380220000014229320961764156595_" x="144.5" y="0" width="53.4" height="258.55"/>
		</defs>
		<clipPath id="SVGID_00000168077944453692522880000013113695095713375393_">
			<use xlink:href="#SVGID_00000118390227257266380220000014229320961764156595_"  style="overflow:visible;"/>
		</clipPath>
		<g style="clip-path:url(#SVGID_00000168077944453692522880000013113695095713375393_);">
			<g>
				<g>
					<defs>
						<path id="SVGID_00000121981461560688898740000005423951058804485545_" d="M197.76,205.26V-0.09
							c-29.41,0-53.26,23.83-53.26,53.21v205.36c29.41,0,53.26-23.83,53.26-53.21V205.26z"/>
					</defs>
					<clipPath id="SVGID_00000047754234822236448150000014431928210260659609_">
						<use xlink:href="#SVGID_00000121981461560688898740000005423951058804485545_"  style="overflow:visible;"/>
					</clipPath>
					<g style="clip-path:url(#SVGID_00000047754234822236448150000014431928210260659609_);">
						<path class="st3" d="M144.5-0.09h53.26v258.64H144.5V-0.09z"/>
					</g>
				</g>
			</g>
		</g>
	</g>
</g>
</svg>
